<?xml version="1.0" encoding="UTF-8" standalone="no"?>
<svg width="16px" height="12px" viewBox="0 0 16 12" version="1.1" xmlns="http://www.w3.org/2000/svg" xmlns:xlink="http://www.w3.org/1999/xlink" xmlns:sketch="http://www.bohemiancoding.com/sketch/ns">
    <!-- Generator: Sketch 3.3.3 (12072) - http://www.bohemiancoding.com/sketch -->
    <title>Group</title>
    <desc>Created with Sketch.</desc>
    <defs></defs>
    <g id="Page-1" stroke="none" stroke-width="1" fill="none" fill-rule="evenodd" sketch:type="MSPage">
        <g id="stroke-icons" sketch:type="MSLayerGroup" transform="translate(-482.000000, -575.000000)" fill="#000000">
            <g id="Group" transform="translate(482.000000, 575.000000)" sketch:type="MSShapeGroup">
                <path d="M4,7 L1,7 C0.447,7 0,7.447 0,8 L0,11 C0,11.553 0.447,12 1,12 L4,12 C4.553,12 5,11.553 5,11 L5,8 C5,7.447 4.553,7 4,7 L4,7 Z M4,11 L1,11 L1,8 L4,8 L4,11 L4,11 Z" id="Shape"></path>
                <path d="M15.5,11 L6.5,11 C6.224,11 6,11.224 6,11.5 C6,11.776 6.224,12 6.5,12 L15.5,12 C15.776,12 16,11.776 16,11.5 C16,11.224 15.776,11 15.5,11 L15.5,11 Z" id="Shape"></path>
                <path d="M15.5,9 L6.5,9 C6.224,9 6,9.224 6,9.5 C6,9.776 6.224,10 6.5,10 L15.5,10 C15.776,10 16,9.776 16,9.5 C16,9.224 15.776,9 15.5,9 L15.5,9 Z" id="Shape"></path>
                <path d="M15.5,7 L6.5,7 C6.224,7 6,7.224 6,7.5 C6,7.776 6.224,8 6.5,8 L15.5,8 C15.776,8 16,7.776 16,7.5 C16,7.224 15.776,7 15.5,7 L15.5,7 Z" id="Shape"></path>
                <path d="M4,0 L1,0 C0.447,0 0,0.447 0,1 L0,4 C0,4.553 0.447,5 1,5 L4,5 C4.553,5 5,4.553 5,4 L5,1 C5,0.447 4.553,0 4,0 L4,0 Z M4,4 L1,4 L1,1 L4,1 L4,4 L4,4 Z" id="Shape"></path>
                <path d="M15.5,4 L6.5,4 C6.224,4 6,4.224 6,4.5 C6,4.776 6.224,5 6.5,5 L15.5,5 C15.776,5 16,4.776 16,4.5 C16,4.224 15.776,4 15.5,4 L15.5,4 Z" id="Shape"></path>
                <path d="M15.5,2 L6.5,2 C6.224,2 6,2.224 6,2.5 C6,2.776 6.224,3 6.5,3 L15.5,3 C15.776,3 16,2.776 16,2.5 C16,2.224 15.776,2 15.5,2 L15.5,2 Z" id="Shape"></path>
                <path d="M6.5,1 L15.5,1 C15.776,1 16,0.776 16,0.5 C16,0.224 15.776,0 15.5,0 L6.5,0 C6.224,0 6,0.224 6,0.5 C6,0.776 6.224,1 6.5,1 L6.5,1 Z" id="Shape"></path>
            </g>
        </g>
    </g>
</svg>