<?xml version="1.0" encoding="UTF-8" standalone="no"?>
<svg width="180px" height="180px" viewBox="0 0 180 180" version="1.1" xmlns="http://www.w3.org/2000/svg" xmlns:xlink="http://www.w3.org/1999/xlink" xmlns:sketch="http://www.bohemiancoding.com/sketch/ns">
    <!-- Generator: Sketch 3.3.3 (12072) - http://www.bohemiancoding.com/sketch -->
    <title>Group</title>
    <desc>Created with Sketch.</desc>
    <defs>
        <circle id="path-1" cx="90" cy="90" r="90"></circle>
        <linearGradient x1="55.8695972%" y1="0%" x2="55.8695972%" y2="100%" id="linearGradient-3">
            <stop stop-color="#F48644" offset="0%"></stop>
            <stop stop-color="#F3610E" offset="100%"></stop>
        </linearGradient>
    </defs>
    <g id="Page-1" stroke="none" stroke-width="1" fill="none" fill-rule="evenodd" sketch:type="MSPage">
        <g id="Artboard-1" sketch:type="MSArtboardGroup" transform="translate(-62.000000, -64.000000)">
            <g id="Group" sketch:type="MSLayerGroup" transform="translate(62.000000, 64.000000)">
                <mask id="mask-2" sketch:name="Mask" fill="white">
                    <use xlink:href="#path-1"></use>
                </mask>
                <use id="Mask" fill="#D8D8D8" sketch:type="MSShapeGroup" xlink:href="#path-1"></use>
                <path d="M53.306425,-36.693575 L160.693575,25.306425 L98.693575,132.693575 L-8.69357503,70.693575 L53.306425,-36.693575 L53.306425,-36.693575 Z" id="Rectangle-1" fill-opacity="0.899999976" fill="url(#linearGradient-3)" sketch:type="MSShapeGroup" mask="url(#mask-2)"></path>
                <path d="M51.306425,105.693575 L113.306425,-1.69357503 L220.693575,60.306425 L158.693575,167.693575 L51.306425,105.693575 L51.306425,105.693575 Z" id="Rectangle-1-Copy" fill-opacity="0.900000036" fill="url(#linearGradient-3)" sketch:type="MSShapeGroup" mask="url(#mask-2)"></path>
                <path d="M191.693575,110.306425 L129.693575,217.693575 L22.306425,155.693575 L84.306425,48.306425 L191.693575,110.306425 L191.693575,110.306425 Z" id="Rectangle-1-Copy-2" fill-opacity="0.900000036" fill="url(#linearGradient-3)" sketch:type="MSShapeGroup" mask="url(#mask-2)"></path>
                <path d="M24.5759562,13.1150187 L131.963106,75.1150187 L69.9631063,182.502169 L-37.4240438,120.502169 L24.5759562,13.1150187 L24.5759562,13.1150187 Z" id="Rectangle-1-Copy-3" fill-opacity="0.900000036" fill="url(#linearGradient-3)" sketch:type="MSShapeGroup" mask="url(#mask-2)"></path>
                <path d="M89.5,28 C55.536625,28 28,55.536625 28,89.5 C28,123.471062 55.536625,151 89.5,151 C123.463375,151 151,123.471062 151,89.5 C151,55.536625 123.463375,28 89.5,28 L89.5,28 L89.5,28 Z M89.5,143.3125 C59.7878125,143.3125 35.6875,119.219875 35.6875,89.5 C35.6875,59.780125 59.7878125,35.6875 89.5,35.6875 C119.219875,35.6875 143.3125,59.780125 143.3125,89.5 C143.3125,119.219875 119.227563,143.3125 89.5,143.3125 L89.5,143.3125 L89.5,143.3125 Z M89.5,127.9375 C106.481688,127.9375 120.25,114.169187 120.25,97.1875 L58.75,97.1875 C58.75,114.169187 72.5183125,127.9375 89.5,127.9375 L89.5,127.9375 L89.5,127.9375 Z M66.4375,74.125 C70.6886875,74.125 74.125,70.6886875 74.125,66.4375 C74.125,62.194 70.6886875,58.75 66.4375,58.75 C62.1863125,58.75 58.75,62.194 58.75,66.4375 C58.75,70.6886875 62.194,74.125 66.4375,74.125 L66.4375,74.125 L66.4375,74.125 Z M112.5625,58.75 C108.311313,58.75 104.875,62.194 104.875,66.4375 C104.875,70.6886875 108.311313,74.125 112.5625,74.125 C116.813687,74.125 120.25,70.6886875 120.25,66.4375 C120.25,62.194 116.813687,58.75 112.5625,58.75 L112.5625,58.75 L112.5625,58.75 Z" id="Shape" fill-opacity="0.900000036" fill="#FFFFFF" sketch:type="MSShapeGroup" mask="url(#mask-2)"></path>
            </g>
        </g>
    </g>
</svg>