<?xml version="1.0" encoding="UTF-8" standalone="no"?>
<svg width="16px" height="15px" viewBox="0 0 16 15" version="1.1" xmlns="http://www.w3.org/2000/svg" xmlns:xlink="http://www.w3.org/1999/xlink" xmlns:sketch="http://www.bohemiancoding.com/sketch/ns">
    <!-- Generator: Sketch 3.3.3 (12072) - http://www.bohemiancoding.com/sketch -->
    <title>Group</title>
    <desc>Created with Sketch.</desc>
    <defs></defs>
    <g id="Page-1" stroke="none" stroke-width="1" fill="none" fill-rule="evenodd" sketch:type="MSPage">
        <g id="stroke-icons" sketch:type="MSLayerGroup" transform="translate(-62.000000, -453.000000)" fill="#000000">
            <g id="Group" transform="translate(62.000000, 453.000000)" sketch:type="MSShapeGroup">
                <path d="M14.627,1.428 C12.797,-0.445 9.831,-0.445 8,1.428 C6.169,-0.445 3.203,-0.445 1.374,1.428 C-0.457,3.303 -0.457,6.34 1.374,8.215 L8,15 L14.627,8.215 C16.458,6.34 16.458,3.303 14.627,1.428 L14.627,1.428 Z M13.799,7.366 L11.628,9.59 L8,13.305 L4.372,9.59 L2.202,7.366 L2.206,7.364 C0.865,5.955 0.84,3.672 2.202,2.277 C3.575,0.871 5.8,0.871 7.172,2.277 C7.214,2.319 8,3.125 8,3.125 C8,3.125 8.787,2.319 8.828,2.277 C10.201,0.871 12.426,0.871 13.799,2.277 C15.172,3.683 15.172,5.961 13.799,7.366 L13.799,7.366 Z" id="Shape"></path>
                <path d="M11,3 C10.589,3 10.208,3.124 9.891,3.337 L10.455,4.184 C10.614,4.077 10.794,4 11,4 C11.552,4 12,4.447 12,5 C12,5.161 11.953,5.308 11.885,5.442 L12.782,5.89 C12.917,5.622 13,5.322 13,5 C13,3.896 12.104,3 11,3 L11,3 Z" id="Shape"></path>
            </g>
        </g>
    </g>
</svg>