<?xml version="1.0" encoding="UTF-8" standalone="no"?>
<svg width="248px" height="89px" viewBox="0 0 248 89" version="1.1" xmlns="http://www.w3.org/2000/svg" xmlns:xlink="http://www.w3.org/1999/xlink" xmlns:sketch="http://www.bohemiancoding.com/sketch/ns">
    <!-- Generator: Sketch 3.3.3 (12072) - http://www.bohemiancoding.com/sketch -->
    <title>Hark</title>
    <desc>Created with Sketch.</desc>
    <defs>
        <linearGradient x1="55.8695972%" y1="0%" x2="55.8695972%" y2="100%" id="linearGradient-1">
            <stop stop-color="#F48644" offset="0%"></stop>
            <stop stop-color="#F3610E" offset="100%"></stop>
        </linearGradient>
    </defs>
    <g id="Page-1" stroke="none" stroke-width="1" fill="none" fill-rule="evenodd" sketch:type="MSPage">
        <g id="Artboard-6" sketch:type="MSArtboardGroup" transform="translate(-11.000000, -14.000000)" fill="url(#linearGradient-1)">
            <path d="M15.8992255,101.975178 C14.3079573,101.975178 13.2192112,101.853229 12.6329545,101.609328 C12.0466978,101.365427 11.7535738,100.99958 11.7535738,100.511778 L11.7535738,21.7320724 C11.7535738,21.2442699 12.0466978,20.8784235 12.6329545,20.6345223 C13.2192112,20.3906211 14.3079573,20.2686723 15.8992255,20.2686723 C18.5792561,20.2686723 19.9192513,20.7564674 19.9192513,21.7320724 L19.9192513,57.0975749 C19.9192513,57.4227765 20.0448758,57.5853749 20.2961287,57.5853749 L64.3907869,57.5853749 C64.6420398,57.5853749 64.7676643,57.4227765 64.7676643,57.0975749 L64.7676643,21.7320724 C64.7676643,21.2442699 65.0607883,20.8784235 65.647045,20.6345223 C66.2333017,20.3906211 67.3220478,20.2686723 68.9133159,20.2686723 C71.6770975,20.2686723 73.0589676,20.7564674 73.0589676,21.7320724 L73.0589676,100.511778 C73.0589676,101.487383 71.6770975,101.975178 68.9133159,101.975178 C67.3220478,101.975178 66.2333017,101.853229 65.647045,101.609328 C65.0607883,101.365427 64.7676643,100.99958 64.7676643,100.511778 L64.7676643,65.1462755 C64.7676643,64.8210738 64.6420398,64.6584754 64.3907869,64.6584754 L20.2961287,64.6584754 C20.0448758,64.6584754 19.9192513,64.8210738 19.9192513,65.1462755 L19.9192513,100.511778 C19.9192513,101.487383 18.5792561,101.975178 15.8992255,101.975178 L15.8992255,101.975178 Z M95.4203612,85.1460769 C95.4203612,87.2598876 95.8181723,89.0484699 96.6138063,90.5118773 C97.4094404,91.9752847 98.4772491,93.1337982 99.8172644,93.9874525 C101.15728,94.8411069 102.748524,95.4508508 104.591045,95.8167027 C106.433566,96.1825545 108.359809,96.3654777 110.369832,96.3654777 C112.79861,96.3654777 115.143602,96.0402809 117.404877,95.3898776 C119.666153,94.7394743 121.655209,93.967132 123.372103,93.0728275 C125.088998,92.1785229 126.470868,91.263907 127.517755,90.3289523 C128.564642,89.3939975 129.088077,88.6826296 129.088077,88.1948271 L129.088077,67.3413756 C129.088077,66.6909723 128.794953,66.3657756 128.208697,66.3657756 C128.041195,66.3657756 127.727133,66.4064252 127.266503,66.4877256 C126.805873,66.569026 126.282437,66.6909748 125.696181,66.8535756 C122.932399,67.6665797 119.791785,68.438922 116.274245,69.1706258 C112.756705,69.9023295 109.469529,70.8779198 106.412619,72.097426 C103.355709,73.3169322 100.759469,74.942916 98.6238193,76.9754263 C96.4881699,79.0079366 95.4203612,81.7314596 95.4203612,85.1460769 L95.4203612,85.1460769 Z M138.761265,102.341028 C136.164985,102.341028 134.09218,101.609335 132.542787,100.145928 C130.993394,98.6825205 130.009335,97.1784855 129.590581,95.6337776 C129.255577,95.8776789 128.501829,96.3857988 127.329316,97.1581527 C126.156803,97.9305067 124.628371,98.7434986 122.743974,99.5971529 C120.859578,100.450807 118.682085,101.202825 116.211432,101.853228 C113.740779,102.503631 110.997976,102.828828 107.982942,102.828828 C105.051658,102.828828 102.329793,102.503631 99.8172644,101.853228 C97.3047357,101.202825 95.1063061,100.16626 93.2219096,98.7435029 C91.337513,97.3207456 89.8718933,95.5321634 88.8250063,93.3777025 C87.7781194,91.2232416 87.2546837,88.6419922 87.2546837,85.6338769 C87.2546837,80.918453 88.5528041,77.1583654 91.1490837,74.3535011 C93.7453634,71.5486369 96.9697269,69.3332339 100.822271,67.7072257 C104.674815,66.0812174 108.77855,64.8007551 113.1336,63.8658004 C117.48865,62.9308456 121.424886,61.9349305 124.942426,60.8780252 C126.19869,60.5528235 127.161812,60.1666524 127.831819,59.7195001 C128.501827,59.2723478 128.836826,58.5609799 128.836826,57.5853749 C128.836826,53.845556 127.517768,50.8984602 124.879613,48.7439993 C122.241458,46.5895384 118.409909,45.5123241 113.384852,45.5123241 C110.788572,45.5123241 108.506393,45.7765465 106.538245,46.3049991 C104.570098,46.8334518 102.832291,47.4431958 101.324774,48.1342493 C99.8172569,48.8253028 98.5610114,49.4350467 97.5559999,49.9634994 C96.5509884,50.4919521 95.7553663,50.7561744 95.1691096,50.7561744 C94.4991019,50.7561744 94.1641031,50.3903281 94.1641031,49.6586244 C94.1641031,49.0082211 94.2897277,48.1342548 94.5409805,47.0366992 C94.7922334,45.9391436 95.1272322,45.0651773 95.545987,44.414774 C95.8809908,44.0082719 96.5928633,43.4798272 97.6816257,42.8294239 C98.7703881,42.1790206 100.131321,41.5692766 101.764464,41.0001738 C103.397608,40.4310709 105.261039,39.9432757 107.354813,39.5367737 C109.448587,39.1302716 111.626079,38.9270236 113.887355,38.9270236 C121.843696,38.9270236 127.685237,40.7562554 131.412155,44.414774 C135.139072,48.0732926 137.002503,53.6016377 137.002503,60.9999752 L137.002503,90.6338273 C137.002503,92.5037368 137.316565,93.885823 137.944697,94.7801276 C138.572829,95.6744321 139.515013,96.2028769 140.771277,96.3654777 C140.938779,96.5280785 141.294716,96.6093777 141.839097,96.6093777 L143.032542,96.6093777 C143.786301,96.6093777 144.163174,96.8126257 144.163174,97.2191278 C144.163174,97.5443294 143.995675,97.991475 143.660671,98.5605778 C143.325667,99.1296807 142.885981,99.6987751 142.3416,100.267878 C141.797219,100.836981 141.210971,101.324776 140.582839,101.731278 C139.954707,102.13778 139.347521,102.341028 138.761265,102.341028 L138.761265,102.341028 Z M161.750787,101.975178 C160.24327,101.975178 159.217336,101.853229 158.672955,101.609328 C158.128574,101.365427 157.856387,100.99958 157.856387,100.511778 L157.856387,53.4390746 C157.856387,51.4878647 157.647013,49.9431801 157.228258,48.8049743 C156.809503,47.6667685 156.327943,46.7521526 155.783561,46.0610991 C155.23918,45.3700456 154.757619,44.8619257 154.338865,44.536724 C153.92011,44.2115224 153.710736,43.8863256 153.710736,43.5611239 C153.710736,43.2359223 153.92011,42.8497511 154.338865,42.4025989 C154.757619,41.9554466 155.281055,41.508301 155.909187,41.0611488 C156.537319,40.6139965 157.165442,40.2278253 157.793574,39.9026237 C158.421706,39.577422 158.945142,39.4148236 159.363897,39.4148236 C160.452659,39.4148236 161.66703,40.2074908 163.007045,41.7928488 C164.347061,43.3782069 165.226432,45.9594562 165.645187,49.5366744 C166.985202,47.5854645 168.534572,45.8375318 170.293342,44.292824 C171.800859,42.910717 173.643353,41.6709043 175.820878,40.5733487 C177.998402,39.4757932 180.510893,38.9270236 183.358426,38.9270236 C186.875966,38.9270236 189.618769,39.5164428 191.586916,40.6952987 C193.555064,41.8741547 194.539123,42.8294202 194.539123,43.5611239 C194.539123,43.967626 194.266936,44.5773699 193.722555,45.3903741 C193.178174,46.2033782 192.612863,46.8944213 192.026607,47.4635242 C191.44035,48.2765283 190.937852,48.6830243 190.519097,48.6830243 C190.267844,48.6830243 189.911908,48.5407507 189.451278,48.2561993 C188.990647,47.9716478 188.404399,47.6464511 187.692516,47.2805992 C186.980633,46.9147473 186.122199,46.5895506 185.117187,46.3049991 C184.112176,46.0204477 182.85593,45.8781741 181.348413,45.8781741 C179.170888,45.8781741 177.11902,46.4269437 175.192748,47.5244992 C173.266476,48.6220548 171.591482,50.0447907 170.167716,51.7927495 C168.74395,53.5407084 167.634266,55.491889 166.838632,57.6463499 C166.042998,59.8008109 165.645187,61.9349147 165.645187,64.0487254 L165.645187,100.633728 C165.645187,101.04023 165.373001,101.365427 164.828619,101.609328 C164.284238,101.853229 163.258304,101.975178 161.750787,101.975178 L161.750787,101.975178 Z M210.367974,101.975178 C208.776706,101.975178 207.729835,101.853229 207.227329,101.609328 C206.724823,101.365427 206.473574,100.99958 206.473574,100.511778 L206.473574,15.634572 C206.473574,15.1467695 206.724823,14.7809231 207.227329,14.5370219 C207.729835,14.2931206 208.776706,14.1711719 210.367974,14.1711719 C211.875492,14.1711719 212.901425,14.2931206 213.445807,14.5370219 C213.990188,14.7809231 214.262374,15.1061199 214.262374,15.5126219 L214.262374,68.6828257 C218.031167,67.54462 221.653342,66.0405849 225.129007,64.1706754 C228.604671,62.3007659 231.724348,60.2073117 234.488129,57.89025 C237.251911,55.5731882 239.596902,53.073238 241.523174,50.3903244 C243.449446,47.7074108 244.831317,44.9838879 245.668826,42.2196738 C245.836328,41.8131718 246.129452,41.4676502 246.548207,41.1830988 C246.966962,40.8985473 248.013833,40.7562737 249.688852,40.7562737 C251.196369,40.7562737 252.159491,40.8578977 252.578245,41.0611488 C252.997,41.2643998 253.206375,41.5286222 253.206375,41.8538238 C253.206375,42.2603259 253.122625,42.6871466 252.955123,43.1342989 C252.787621,43.5814512 252.620122,44.0895711 252.45262,44.658674 C250.777601,49.4553983 248.01386,53.7845804 244.161316,57.6463499 C240.308772,61.5081195 235.870038,64.98366 230.844981,68.0730757 C232.938755,68.9673802 234.885935,70.3088169 236.686581,72.097426 C238.487226,73.886035 240.120346,75.8981901 241.585987,78.1339514 C243.051629,80.3697127 244.412562,82.7070645 245.668826,85.1460769 C246.92509,87.5850893 248.139461,89.9427659 249.311975,92.2191774 C250.65199,94.4142885 251.991985,95.674426 253.332,95.9996277 C253.750755,96.2435289 254.337003,96.4061273 255.090762,96.4874277 C255.84452,96.5687281 256.556393,96.6093777 257.2264,96.6093777 C257.980159,96.6093777 258.357033,96.8126257 258.357033,97.2191278 C258.357033,97.5443294 258.189533,97.991475 257.854529,98.5605778 C257.519526,99.1296807 257.07984,99.6987751 256.535458,100.267878 C255.991077,100.836981 255.383892,101.324776 254.713884,101.731278 C254.043877,102.13778 253.415754,102.341028 252.829497,102.341028 C250.400719,102.341028 248.537289,101.954857 247.239149,101.182503 C245.941009,100.410149 244.8732,99.2922852 244.035691,97.8288778 C242.528173,95.1459642 241.020679,92.4224412 239.513162,89.6582272 C238.005644,86.8940132 236.456275,84.3127638 234.865007,81.9144017 C233.273739,79.5160395 231.598745,77.4225853 229.839974,75.6339762 C228.081204,73.8453671 226.196836,72.5852297 224.186813,71.8535259 C222.679296,72.5039292 221.004302,73.2152972 219.161781,73.9876511 C217.31926,74.760005 215.686141,75.3494242 214.262374,75.7559262 L214.262374,100.633728 C214.262374,101.04023 213.990188,101.365427 213.445807,101.609328 C212.901425,101.853229 211.875492,101.975178 210.367974,101.975178 L210.367974,101.975178 Z" id="Hark" sketch:type="MSShapeGroup"></path>
        </g>
    </g>
</svg>